<svg xmlns="http://www.w3.org/2000/svg"  viewBox="0 0 64 64" width="512px" height="512px" baseProfile="basic"><path fill="#ed7899" d="M50,7H14c-3.866,0-7,3.134-7,7v7.292l8.897,5.138c0.429,0.248,0.957,0.248,1.387,0.001l17.704-10.179	c0.211-0.121,0.47-0.123,0.683-0.005l2.313,1.282c0.473,0.262,0.478,0.94,0.009,1.21L17.278,30.644	c-0.429,0.247-0.957,0.246-1.386-0.001L7,25.512v4.229l8.897,5.138c0.429,0.248,0.957,0.248,1.387,0.001l17.704-10.179	c0.211-0.121,0.47-0.123,0.683-0.005l2.313,1.282c0.473,0.262,0.478,0.94,0.009,1.21L17.278,39.094	c-0.429,0.247-0.957,0.246-1.386-0.001L7,33.963v4.229l8.897,5.138c0.429,0.248,0.957,0.248,1.387,0.001l17.704-10.179	c0.211-0.121,0.47-0.123,0.683-0.005l2.313,1.282c0.473,0.262,0.478,0.94,0.009,1.21L17.278,47.544	c-0.429,0.247-0.957,0.246-1.386-0.001L7,42.413V50c0,3.866,3.134,7,7,7h36.056C53.891,57,57,53.891,57,50.056V14	C57,10.134,53.866,7,50,7z"/><path fill="#8d6c9f" d="M23.866,51.68c-0.347,0-0.684-0.18-0.868-0.502l-0.996-1.734c-0.275-0.479-0.109-1.09,0.369-1.365 c0.479-0.273,1.091-0.11,1.365,0.369l0.996,1.734c0.275,0.479,0.109,1.09-0.369,1.365C24.206,51.637,24.035,51.68,23.866,51.68z"/><path fill="#8d6c9f" d="M28.371,49.09c-0.347,0-0.683-0.18-0.868-0.501l-0.997-1.733c-0.275-0.479-0.11-1.091,0.368-1.366 c0.48-0.273,1.09-0.11,1.366,0.368l0.997,1.733c0.275,0.479,0.11,1.091-0.368,1.366C28.712,49.047,28.54,49.09,28.371,49.09z"/><path fill="#8d6c9f" d="M32.876,46.501c-0.347,0-0.683-0.18-0.868-0.501l-0.997-1.733c-0.275-0.479-0.11-1.091,0.368-1.366 c0.479-0.274,1.091-0.109,1.366,0.368l0.997,1.733c0.275,0.479,0.11,1.091-0.368,1.366C33.217,46.458,33.045,46.501,32.876,46.501 z"/><path fill="#8d6c9f" d="M37.38,43.912c-0.347,0-0.684-0.18-0.868-0.502l-0.996-1.734c-0.275-0.479-0.109-1.09,0.369-1.365 c0.479-0.274,1.091-0.11,1.365,0.369l0.996,1.734c0.275,0.479,0.109,1.09-0.369,1.365C37.72,43.869,37.549,43.912,37.38,43.912z"/><path fill="#8d6c9f" d="M50.056,58H14c-4.411,0-8-3.589-8-8v-7.587c0-0.357,0.19-0.688,0.5-0.866	c0.309-0.178,0.689-0.178,1,0l8.892,5.13c0.119,0.07,0.269,0.07,0.39,0l20.244-11.635l-1.688-0.936L17.781,44.199	c-0.733,0.423-1.648,0.423-2.384-0.002L6.5,39.059C6.19,38.88,6,38.55,6,38.192v-4.229c0-0.357,0.19-0.688,0.5-0.866	c0.309-0.178,0.689-0.178,1,0l8.892,5.13c0.117,0.069,0.266,0.07,0.389,0l20.244-11.635l-1.688-0.936L17.781,35.749	c-0.732,0.423-1.647,0.424-2.386-0.004L6.5,30.608C6.19,30.43,6,30.1,6,29.742v-4.229c0-0.357,0.19-0.688,0.5-0.866	c0.309-0.178,0.689-0.178,1,0l8.892,5.13c0.119,0.068,0.268,0.07,0.389,0l20.245-11.636l-1.689-0.936L17.781,27.299	c-0.732,0.423-1.647,0.424-2.386-0.004L6.5,22.158C6.19,21.979,6,21.649,6,21.292V14c0-4.411,3.589-8,8-8h36c4.411,0,8,3.589,8,8	v36.056C58,54.437,54.437,58,50.056,58z M8,44.145V50c0,3.309,2.691,6,6,6h36.056C53.333,56,56,53.333,56,50.056V14	c0-3.309-2.691-6-6-6H14c-3.309,0-6,2.691-6,6v6.715l8.396,4.849c0.119,0.069,0.267,0.07,0.388,0.002l17.705-10.181	c0.513-0.293,1.151-0.299,1.666-0.012l2.313,1.28c0.535,0.298,0.869,0.86,0.873,1.471c0.005,0.609-0.32,1.178-0.85,1.481	L17.776,31.511c-0.734,0.423-1.647,0.422-2.384-0.002L8,27.244v1.921l8.396,4.849c0.119,0.069,0.267,0.07,0.388,0.002l17.705-10.18	c0.511-0.294,1.149-0.3,1.666-0.013l2.313,1.281c0.534,0.296,0.868,0.858,0.873,1.469c0.006,0.61-0.32,1.178-0.85,1.482	L17.776,39.961c-0.735,0.422-1.65,0.422-2.386-0.003L8,35.694v1.921l8.396,4.85c0.119,0.07,0.269,0.069,0.388,0.001l17.705-10.18	c0.508-0.294,1.146-0.302,1.666-0.013l2.313,1.281c0.534,0.296,0.868,0.858,0.873,1.469c0.006,0.61-0.32,1.178-0.85,1.482	L17.776,48.412c-0.738,0.424-1.651,0.42-2.386-0.004L8,44.145z M35.488,34.019L35.488,34.019	C35.487,34.02,35.487,34.02,35.488,34.019z M35.488,25.568l-0.002,0.001C35.487,25.569,35.487,25.569,35.488,25.568z"/></svg>